# xmcd CD database file generated by Grip 3.2.0
# 
# Track frame offsets:
#       150
#       24815
#       44897
#       66262
#       84350
#       102705
#       158495
# 
# Disc length: 2174 seconds
# 
# Revision: 1
# Processed by: cddbd v1.5.1PL2 Copyright (c) Steve Scherf et al.
# Submitted via: Grip 3.2.0
# 
DISCID=53087c07
DTITLE=Marvin Gaye - The Very Best Of Marvin Gaye - CD 2 Bonus Disc
DYEAR=1994
DGENRE=Blues
TTITLE0=Inner City Blues (Makes me wanna Holler)
TTITLE1=T plays it cool
TTITLE2=You sure Love to Ball
TTITLE3=If I should Die Tonight
TTITLE4=Save the Childern
TTITLE5=Sixties Medley (Live)
TTITLE6=Marvin Gaye Interview
EXTD=
EXTT0=
EXTT1=
EXTT2=
EXTT3=
EXTT4=
EXTT5=
EXTT6=
PLAYORDER=
